<?xml version="1.0" encoding="UTF-8"?>
<svg width="21px" height="20px" viewBox="0 0 21 20" version="1.1" xmlns="http://www.w3.org/2000/svg" xmlns:xlink="http://www.w3.org/1999/xlink">
    <!-- Generator: Sketch 49 (51002) - http://www.bohemiancoding.com/sketch -->
    <title>shopping-cart-of-checkered-design</title>
    <desc>Created with Sketch.</desc>
    <defs></defs>
    <g id="Symbols" stroke="none" stroke-width="1" fill="none" fill-rule="evenodd">
        <g id="header" transform="translate(-1179.000000, -191.000000)" fill="#E1A957" fill-rule="nonzero">
            <g id="shopping-cart-of-checkered-design" transform="translate(1179.000000, 191.000000)">
                <path d="M20.2979783,3.82375549 C20.17722,3.65819394 19.9844005,3.56021767 19.7794963,3.56021767 L5.34104362,3.56021767 C5.31306958,3.56021767 5.2851403,3.56191849 5.25824047,3.56554393 L4.66402715,1.85263765 C4.60243951,1.67548367 4.46682137,1.53427072 4.29253193,1.465656 L1.29783286,0.289224632 C0.967783976,0.160006957 0.595348827,0.3221221 0.465728326,0.651768161 C0.336331617,0.981593255 0.498402002,1.3542522 0.828271855,1.4838727 L3.54815397,2.55234666 L6.87733301,12.1485158 C6.73039099,12.1997195 6.60587295,12.312466 6.54916398,12.4701949 L5.58658853,15.1440205 C5.52759688,15.3079708 5.55190073,15.4901377 5.65229395,15.6326039 C5.7525529,15.7750701 5.91560797,15.8598873 6.08971839,15.8598873 L6.58403082,15.8598873 C6.27770392,16.2007678 6.08971839,16.6496951 6.08971839,17.1433362 C6.08971839,18.2049173 6.95346715,19.0684871 8.01486928,19.0684871 C9.07627141,19.0684871 9.94002018,18.2049173 9.94002018,17.1433362 C9.94002018,16.6496951 9.75203464,16.2007678 9.44570774,15.8598873 L13.6429771,15.8598873 C13.3365159,16.2007678 13.1484856,16.6496951 13.1484856,17.1433362 C13.1484856,18.2049173 14.0120554,19.0684871 15.0736813,19.0684871 C16.1352625,19.0684871 16.9988322,18.2049173 16.9988322,17.1433362 C16.9988322,16.6496951 16.8108467,16.2007678 16.5045645,15.8598873 L17.1058049,15.8598873 C17.401166,15.8598873 17.6405342,15.6204743 17.6405342,15.3251132 C17.6405342,15.0297522 17.4011212,14.7903839 17.1058049,14.7903839 L6.85061221,14.7903839 L7.44675014,13.1344999 C7.5237347,13.166905 7.60689592,13.1860617 7.69395112,13.1860617 L17.1056706,13.1860617 C17.3846949,13.1860617 17.6316273,13.0058194 17.7166236,12.7403122 L20.3904493,4.39791702 C20.4531559,4.2025911 20.4187366,3.98931703 20.2979783,3.82375549 Z M8.01486928,17.9989389 C7.54298083,17.9989389 7.15926655,17.6152246 7.15926655,17.1433362 C7.15926655,16.6714477 7.54298083,16.2876887 8.01486928,16.2876887 C8.48675773,16.2876887 8.87047201,16.6714477 8.87047201,17.1433362 C8.87047201,17.6152246 8.48675773,17.9989389 8.01486928,17.9989389 Z M15.0736365,17.9989389 C14.6017481,17.9989389 14.2179891,17.6152246 14.2179891,17.1433362 C14.2179891,16.6714477 14.6017481,16.2876887 15.0736365,16.2876887 C15.5454802,16.2876887 15.9292393,16.6714477 15.9292393,17.1433362 C15.9292393,17.6152246 15.5454802,17.9989389 15.0736365,17.9989389 Z M18.4373691,6.28752969 L15.1627954,6.28752969 L15.1627954,4.84366652 L18.9000821,4.84366652 L18.4373691,6.28752969 Z M17.4944426,9.22869764 L15.1627954,9.22869764 L15.1627954,7.57093379 L18.0258598,7.57093379 L17.4944426,9.22869764 Z M10.9202305,9.22869764 L10.9202305,7.57093379 L13.8793465,7.57093379 L13.8793465,9.22869764 L10.9202305,9.22869764 Z M13.8793465,10.512236 L13.8793465,11.9026128 L10.9202305,11.9026128 L10.9202305,10.512236 L13.8793465,10.512236 Z M6.64776687,7.57093379 L9.63691588,7.57093379 L9.63691588,9.22869764 L7.22295784,9.22869764 L6.64776687,7.57093379 Z M10.9202305,6.28752969 L10.9202305,4.84366652 L13.8793465,4.84366652 L13.8793465,6.28752969 L10.9202305,6.28752969 Z M9.63687113,4.84366652 L9.63687113,6.28752969 L6.20237543,6.28752969 L5.7014835,4.84366652 L9.63687113,4.84366652 Z M7.66830452,10.512236 L9.63687113,10.512236 L9.63687113,11.9026128 L8.15062169,11.9026128 L7.66830452,10.512236 Z M15.1627954,11.9026576 L15.1627954,10.5122808 L17.0833362,10.5122808 L16.6377657,11.9026576 L15.1627954,11.9026576 Z" id="Shape"></path>
            </g>
        </g>
    </g>
</svg>