<?xml version="1.0" encoding="UTF-8"?>
<svg width="23px" height="23px" viewBox="0 0 23 23" version="1.1" xmlns="http://www.w3.org/2000/svg" xmlns:xlink="http://www.w3.org/1999/xlink">
    <!-- Generator: Sketch 49 (51002) - http://www.bohemiancoding.com/sketch -->
    <title>clock</title>
    <desc>Created with Sketch.</desc>
    <defs></defs>
    <g id="post-list" stroke="none" stroke-width="1" fill="none" fill-rule="evenodd">
        <g id="post-list:-Desktops---12-col" transform="translate(-167.000000, -783.000000)" fill="#FFFFFF" fill-rule="nonzero">
            <g id="LIST-1" transform="translate(166.000000, 739.000000)">
                <g id="Group">
                    <g id="post-1-copy-6" transform="translate(1.000000, 41.000000)">
                        <g id="clock" transform="translate(0.000000, 3.000000)">
                            <path d="M22.0819542,7.02084641 C20.8693431,4.1922101 18.8087386,2.13502348 15.9580539,0.918550054 C14.5332565,0.310557757 13.040549,0 11.4810964,0 C9.92190686,0 8.44021078,0.307624774 7.01699183,0.918550054 C4.1899085,2.13178968 2.12017157,4.18766022 0.905418301,7.02084641 C0.296707516,8.44025969 0,9.92731957 0,11.4873656 C0,13.0477125 0.296707516,14.5471059 0.905418301,15.96682 C2.12017157,18.8000062 4.19017157,20.8682103 7.01699183,22.0817508 C8.44047386,22.692676 9.92186928,23 11.4810964,23 C13.0403235,23 14.5332565,22.6894422 15.9578284,22.0817508 C18.8085131,20.8652397 20.8691176,18.7951931 22.0819918,15.96682 C22.6925441,14.542556 23,13.0477125 23,11.4873656 C23,9.92731957 22.6928072,8.44507279 22.0819542,7.02084641 Z M20.2461634,16.5707889 C19.3434134,18.1198174 18.1066748,19.3486996 16.5490637,20.257285 C15.0008856,21.1605309 13.3045605,21.6160457 11.4813595,21.6160457 C10.1107549,21.6160457 8.80291176,21.3519269 7.55783007,20.8107915 C6.31278595,20.2699194 5.23779902,19.5588591 4.33854412,18.6593734 C3.43928922,17.7596246 2.72354575,16.6735561 2.18834477,15.4256847 C1.65472222,14.1823632 1.39612255,12.8590239 1.39612255,11.4874032 C1.39612255,9.6629375 1.84413399,7.97429144 2.74181046,6.42954956 C3.64268137,4.87916732 4.87968301,3.64896904 6.42628268,2.74301577 C7.97261928,1.83710011 9.65793301,1.38399186 11.4810964,1.38399186 C13.3045605,1.38399186 15.000585,1.83976987 16.5488007,2.74301577 C18.1064118,3.65163881 19.340482,4.88179948 20.2459003,6.42951195 C21.1513186,7.97696121 21.603915,9.6629375 21.603915,11.4873656 C21.603915,13.3118689 21.1542876,15.0120213 20.2461634,16.5707889 Z" id="Shape"></path>
                            <path d="M12.379147,11.2580765 L12.379147,4.70809581 C12.379147,4.31614524 12.049542,4 11.6712094,4 C11.3173865,4 11,4.31614524 11,4.70809581 L11,11.3592006 C11,11.3718978 11.0244733,11.4226111 11.0244733,11.4604004 C11,11.6880431 11.0612014,11.8777075 11.2075304,12.0295827 L14.8567461,15.8102505 C15.1009316,16.0632498 15.5523923,16.0632498 15.7963955,15.8102505 C16.0770174,15.5194619 16.0585622,15.0975444 15.7963955,14.8239877 L12.379147,11.2580765 Z" id="Shape"></path>
                        </g>
                    </g>
                </g>
            </g>
        </g>
    </g>
</svg>