<?xml version="1.0" encoding="UTF-8"?>
<svg width="23px" height="23px" viewBox="0 0 23 23" version="1.1" xmlns="http://www.w3.org/2000/svg" xmlns:xlink="http://www.w3.org/1999/xlink">
    <!-- Generator: Sketch 49 (51002) - http://www.bohemiancoding.com/sketch -->
    <title>close</title>
    <desc>Created with Sketch.</desc>
    <defs></defs>
    <g id="最快到貨日" stroke="none" stroke-width="1" fill="none" fill-rule="evenodd">
        <g id="最快到貨日:-Desktops---12-col" transform="translate(-981.000000, -271.000000)" fill="#F2D57F" fill-rule="nonzero">
            <g id="close" transform="translate(981.000000, 271.000000)">
                <path d="M13.5340935,11.5002397 L22.5785579,2.45539828 C23.1404807,1.8939315 23.1404807,0.982926473 22.5785579,0.421459693 C22.0166351,-0.140486564 21.1066269,-0.140486564 20.5447041,0.421459693 L11.5002397,9.46630115 L2.45529591,0.421459693 C1.89337308,-0.140486564 0.98336495,-0.140486564 0.421442121,0.421459693 C-0.140480707,0.982926473 -0.140480707,1.8939315 0.421442121,2.45539828 L9.46638594,11.5002397 L0.421442121,20.5450812 C-0.140480707,21.106548 -0.140480707,22.017553 0.421442121,22.5790198 C0.702403535,22.8595134 1.070626,23 1.43836901,23 C1.80611203,23 2.17433449,22.8595134 2.45529591,22.5785403 L11.5002397,13.5336988 L20.5447041,22.5785403 C20.8256655,22.8595134 21.193888,23 21.561631,23 C21.929374,23 22.2975965,22.8595134 22.5785579,22.5785403 C23.1404807,22.0170735 23.1404807,21.1060685 22.5785579,20.5446017 L13.5340935,11.5002397 Z" id="Shape"></path>
            </g>
        </g>
    </g>
</svg>