<?xml version="1.0" encoding="UTF-8"?>
<svg width="28px" height="21px" viewBox="0 0 28 21" version="1.1" xmlns="http://www.w3.org/2000/svg" xmlns:xlink="http://www.w3.org/1999/xlink">
    <!-- Generator: Sketch 49 (51002) - http://www.bohemiancoding.com/sketch -->
    <title>envelope</title>
    <desc>Created with Sketch.</desc>
    <defs></defs>
    <g id="index" stroke="none" stroke-width="1" fill="none" fill-rule="evenodd">
        <g id="Extra-large:-Desktops---12-col" transform="translate(-767.000000, -2699.000000)" fill="#F2D57F" fill-rule="nonzero">
            <g id="envelope" transform="translate(767.000000, 2699.000000)">
                <path d="M24.4947983,0 L3.41183733,0 C1.52984246,0 0,1.50630642 0,3.35934752 L0,17.5470487 C0,19.4000898 1.52984246,20.9063963 3.41183733,20.9063963 L24.4890253,20.9063963 C26.3710202,20.9063963 27.9008626,19.4000898 27.9008626,17.5470487 L27.9008626,3.3650317 C27.9066356,1.51199059 26.3767932,0 24.4947983,0 Z M26.3479282,17.5470487 C26.3479282,18.5531477 25.5166176,19.371669 24.4947983,19.371669 L3.41183733,19.371669 C2.39001803,19.371669 1.55870741,18.5531477 1.55870741,17.5470487 L1.55870741,3.3650317 C1.55870741,2.35893269 2.39001803,1.54041147 3.41183733,1.54041147 L24.4890253,1.54041147 C25.5108446,1.54041147 26.3421552,2.35893269 26.3421552,3.3650317 L26.3421552,17.5470487 L26.3479282,17.5470487 Z" id="Shape"></path>
                <path d="M17.5493702,10.2770901 L24.3730449,4.25186445 C24.6905593,3.9676557 24.7194243,3.48450081 24.4307748,3.166187 C24.1421252,2.85355736 23.6514211,2.82513649 23.3281336,3.10934525 L13.9181592,11.4252935 L12.0823483,9.81098777 C12.0765753,9.80530359 12.0708023,9.79961942 12.0708023,9.79393524 C12.0303914,9.75414602 11.9899804,9.72004097 11.9437965,9.68593591 L4.47354694,3.10366107 C4.15025948,2.81945231 3.6595553,2.84787319 3.37090578,3.166187 C3.08225626,3.48450081 3.11112121,3.9676557 3.43440867,4.25186445 L10.3389052,10.3282477 L3.46327362,16.666103 C3.15153214,16.955996 3.13421317,17.4391508 3.42863568,17.7517805 C3.58450642,17.9109374 3.79233407,17.9962 4.00016173,17.9962 C4.19067041,17.9962 4.3811791,17.9279899 4.53127685,17.7915697 L11.5108222,11.3627676 L13.4043631,13.0282309 C13.5544608,13.1589669 13.7391965,13.2214929 13.9239322,13.2214929 C14.1086679,13.2214929 14.2991766,13.1532828 14.4435014,13.0225467 L16.3889991,11.3059258 L23.3281336,17.7972539 C23.4782314,17.9393583 23.674513,18.0075684 23.8650217,18.0075684 C24.0728494,18.0075684 24.274904,17.9279899 24.4307748,17.768833 C24.7251973,17.4618875 24.7136513,16.9730485 24.4019098,16.6831555 L17.5493702,10.2770901 Z" id="Shape"></path>
            </g>
        </g>
    </g>
</svg>