<?xml version="1.0" encoding="UTF-8"?>
<svg width="28px" height="31px" viewBox="0 0 28 31" version="1.1" xmlns="http://www.w3.org/2000/svg" xmlns:xlink="http://www.w3.org/1999/xlink">
    <!-- Generator: Sketch 49 (51002) - http://www.bohemiancoding.com/sketch -->
    <title>fax</title>
    <desc>Created with Sketch.</desc>
    <defs></defs>
    <g id="index" stroke="none" stroke-width="1" fill="none" fill-rule="evenodd">
        <g id="Extra-large:-Desktops---12-col" transform="translate(-765.000000, -2609.000000)" fill-rule="nonzero">
            <g id="fax" transform="translate(765.000000, 2609.000000)">
                <path d="M26.9564203,6.76835612 L26.1912058,6.76835612 L26.1912058,1.03333681 C26.1912058,0.462600884 25.7239611,0 25.1477314,0 L11.3738702,0 C10.7976405,0 10.3303959,0.462705262 10.3303959,1.03333681 L10.3303959,6.76825174 L8.97387926,6.76825174 L8.97387926,6.09668719 C8.97387926,5.52595127 8.50674005,5.06335038 7.93051033,5.06335038 L1.04336893,5.06335038 C0.467244618,5.06335038 0,5.52605564 0,6.09668719 L0,26.5567561 C0,27.127492 0.467350019,27.5900929 1.04336893,27.5900929 L3.4434653,27.5900929 L3.4434653,28.2616574 C3.4434653,29.7716861 4.7541323,31 6.36519343,31 L12.9390817,31 C14.5501429,31 15.8608099,29.7020663 15.8608099,28.1066569 L15.8608099,25.8849828 L26.9565257,25.8849828 C27.5327554,25.8849828 28,25.4222775 28,24.851646 L28,7.80169293 C27.9998946,7.23095701 27.53265,6.76835612 26.9564203,6.76835612 Z M12.4172392,2.06667363 L24.1041517,2.06667363 L24.1041517,6.76835612 L12.4172392,6.76835612 L12.4172392,2.06667363 Z M1.5,6.76835612 L7.5,6.76835612 L7.5,25.8850872 L1.5,25.8850872 L1.5,6.76835612 Z M13.7738612,28.1067613 C13.7738612,28.5625777 13.3994753,28.9334308 12.9390817,28.9334308 L6.36519343,28.9334308 C5.91281042,28.9334308 5.53041396,28.6258304 5.53041396,28.2616574 L5.53041396,27.5900929 L7.93051033,27.5900929 C8.50684545,27.5900929 8.97387926,27.1273876 8.97387926,26.5567561 L8.97387926,25.8850872 L13.7738612,25.8850872 L13.7738612,28.1067613 Z M25.9129459,23.9475098 L8.97377386,23.9475098 L8.97377386,8.6673584 L25.9129459,8.6673584 L25.9129459,23.9475098 Z" id="Shape" fill="#F2D57F"></path>
                <path d="M21.8630429,13.9754098 L23.6049536,13.9754098 C24.1880432,13.9754098 24.6605505,13.5201888 24.6605505,12.9590164 C24.6605505,12.397844 24.1879365,11.942623 23.6049536,11.942623 L21.8630429,11.942623 C21.28006,11.942623 20.8073394,12.397844 20.8073394,12.9590164 C20.8073394,13.5201888 21.28006,13.9754098 21.8630429,13.9754098 Z" id="Shape" fill="#F2D57F"></path>
                <path d="M16.7254282,13.9754098 L18.467339,13.9754098 C19.0504285,13.9754098 19.5229358,13.5201888 19.5229358,12.9590164 C19.5229358,12.397844 19.0503219,11.942623 18.467339,11.942623 L16.7254282,11.942623 C16.1424453,11.942623 15.6697248,12.397844 15.6697248,12.9590164 C15.6697248,13.5201888 16.1424453,13.9754098 16.7254282,13.9754098 Z" id="Shape" fill="#F2D57F"></path>
                <path d="M11.5878136,13.9754098 L13.3297243,13.9754098 C13.9128138,13.9754098 14.3853211,13.5201888 14.3853211,12.9590164 C14.3853211,12.397844 13.9127072,11.942623 13.3297243,11.942623 L11.5878136,11.942623 C11.0048306,11.942623 10.5321101,12.397844 10.5321101,12.9590164 C10.5321101,13.5201888 11.0048306,13.9754098 11.5878136,13.9754098 Z" id="Shape" fill="#F2D57F"></path>
                <path d="M21.8630429,17.2786885 L23.6049536,17.2786885 C24.1880432,17.2786885 24.6605505,16.8235701 24.6605505,16.2622951 C24.6605505,15.70102 24.1879365,15.2459016 23.6049536,15.2459016 L21.8630429,15.2459016 C21.28006,15.2459016 20.8073395,15.7011227 20.8073395,16.2622951 C20.8072328,16.8236728 21.28006,17.2786885 21.8630429,17.2786885 Z" id="Shape" fill="#F2D57F"></path>
                <path d="M16.7254282,17.2786885 L18.467339,17.2786885 C19.0504285,17.2786885 19.5229358,16.8235701 19.5229358,16.2622951 C19.5229358,15.70102 19.0503219,15.2459016 18.467339,15.2459016 L16.7254282,15.2459016 C16.1424453,15.2459016 15.6697248,15.7011227 15.6697248,16.2622951 C15.6696182,16.8236728 16.1424453,17.2786885 16.7254282,17.2786885 Z" id="Shape" fill="#F2D57F"></path>
                <path d="M11.5878136,17.2786885 L13.3297243,17.2786885 C13.9128138,17.2786885 14.3853211,16.8235701 14.3853211,16.2622951 C14.3853211,15.70102 13.9127072,15.2459016 13.3297243,15.2459016 L11.5878136,15.2459016 C11.0048306,15.2459016 10.5321101,15.7011227 10.5321101,16.2622951 C10.5321101,16.8236728 11.0048306,17.2786885 11.5878136,17.2786885 Z" id="Shape" fill="#F2D57F"></path>
                <path d="M21.8630429,20.8360656 L23.6049536,20.8360656 C24.1880432,20.8360656 24.6605505,20.3809242 24.6605505,19.8196208 C24.6605505,19.2583174 24.1879365,18.8032787 23.6049536,18.8032787 L21.8630429,18.8032787 C21.28006,18.8032787 20.8073395,19.2584201 20.8073395,19.8196208 C20.8072328,20.3810269 21.28006,20.8360656 21.8630429,20.8360656 Z" id="Shape" fill="#F2D57F"></path>
                <path d="M16.7254282,20.8360656 L18.467339,20.8360656 C19.0504285,20.8360656 19.5229358,20.3809242 19.5229358,19.8196208 C19.5229358,19.2583174 19.0503219,18.8032787 18.467339,18.8032787 L16.7254282,18.8032787 C16.1424453,18.8032787 15.6697248,19.2584201 15.6697248,19.8196208 C15.6696182,20.3810269 16.1424453,20.8360656 16.7254282,20.8360656 Z" id="Shape" fill="#F2D57F"></path>
                <path d="M11.5878136,20.8360656 L13.3297243,20.8360656 C13.9128138,20.8360656 14.3853211,20.3809242 14.3853211,19.8196208 C14.3853211,19.2583174 13.9127072,18.8032787 13.3297243,18.8032787 L11.5878136,18.8032787 C11.0048306,18.8032787 10.5321101,19.2584201 10.5321101,19.8196208 C10.5321101,20.3810269 11.0048306,20.8360656 11.5878136,20.8360656 Z" id="Shape" fill="#F2D57F"></path>
                <path d="M21.8169405,3.30327869 L14.9170045,3.30327869 C14.3396866,3.30327869 13.8715596,3.75842007 13.8715596,4.31972347 C13.8715596,4.88102686 14.3397922,5.33606557 14.9170045,5.33606557 L21.8169405,5.33606557 C22.394364,5.33606557 22.8623853,4.88092419 22.8623853,4.31972347 C22.8623853,3.7583174 22.394364,3.30327869 21.8169405,3.30327869 Z" id="Shape" fill="#000000"></path>
            </g>
        </g>
    </g>
</svg>