<?xml version="1.0" encoding="UTF-8"?>
<svg width="26px" height="16px" viewBox="0 0 26 16" version="1.1" xmlns="http://www.w3.org/2000/svg" xmlns:xlink="http://www.w3.org/1999/xlink">
    <!-- Generator: Sketch 49 (51002) - http://www.bohemiancoding.com/sketch -->
    <title>google-plus</title>
    <desc>Created with Sketch.</desc>
    <defs></defs>
    <g id="login" stroke="none" stroke-width="1" fill="none" fill-rule="evenodd">
        <g id="signup:-Desktops---12-col" transform="translate(-439.000000, -550.000000)" fill="#FFFFFF" fill-rule="nonzero">
            <g id="Group-5-Copy" transform="translate(325.000000, 538.000000)">
                <g id="Group-3" transform="translate(114.000000, 9.000000)">
                    <g id="google-plus" transform="translate(0.000000, 3.000000)">
                        <path d="M8.7750405,9.65042402 L12.6825747,9.65042402 C11.9966795,11.589255 10.1390261,12.9793417 7.96421378,12.9632985 C5.32537014,12.9438174 3.14340792,10.8332037 3.04096299,8.19676462 C2.9311499,5.37069882 5.19885584,3.03657114 8.00149129,3.03657114 C9.28295337,3.03657114 10.4523646,3.52474401 11.3339804,4.32466867 C11.5427999,4.51418626 11.8606685,4.51538678 12.0660495,4.32210394 L13.5012608,2.97157965 C13.72569,2.76034366 13.7265087,2.40362713 13.5027345,2.19168175 C12.1045823,0.867350499 10.229027,0.0418876145 8.16075303,0.00150667088 C3.7493448,-0.084602963 0.0309270651,3.53161968 0.000199046473,7.94296493 C-0.0308018675,12.3874335 3.56339389,16 8.00149129,16 C12.2695203,16 15.7561407,12.6588043 15.9896846,8.44996405 C15.9959066,8.39719598 16,6.61383163 16,6.61383163 L8.7750405,6.61383163 C8.47889445,6.61383163 8.23885568,6.8538254 8.23885568,7.14991594 L8.23885568,9.11433971 C8.23885568,9.41043025 8.47894903,9.65042402 8.7750405,9.65042402 Z" id="Shape"></path>
                        <path d="M23.4402988,6.0981627 L23.4402988,4.16537895 C23.4402988,3.90408799 23.2285185,3.69230769 22.9672276,3.69230769 L21.3404647,3.69230769 C21.0791738,3.69230769 20.8673935,3.90408799 20.8673935,4.16537895 L20.8673935,6.0981627 L18.9346097,6.0981627 C18.6733188,6.0981627 18.4615385,6.309943 18.4615385,6.57123395 L18.4615385,8.19799682 C18.4615385,8.45928777 18.6733188,8.67106807 18.9346097,8.67106807 L20.8673935,8.67106807 L20.8673935,10.6038518 C20.8673935,10.8651428 21.0791738,11.0769231 21.3404647,11.0769231 L22.9672276,11.0769231 C23.2285185,11.0769231 23.4402988,10.8651428 23.4402988,10.6038518 L23.4402988,8.67106807 L25.3730826,8.67106807 C25.6343735,8.67106807 25.8461538,8.45928777 25.8461538,8.19799682 L25.8461538,6.57123395 C25.8461538,6.309943 25.6343735,6.0981627 25.3730826,6.0981627 L23.4402988,6.0981627 Z" id="Shape"></path>
                    </g>
                </g>
            </g>
        </g>
    </g>
</svg>