<?xml version="1.0" encoding="UTF-8"?>
<svg width="42px" height="63px" viewBox="0 0 42 63" version="1.1" xmlns="http://www.w3.org/2000/svg" xmlns:xlink="http://www.w3.org/1999/xlink">
    <!-- Generator: Sketch 49 (51002) - http://www.bohemiancoding.com/sketch -->
    <title>Group 4</title>
    <desc>Created with Sketch.</desc>
    <defs></defs>
    <g id="brand&amp;food" stroke="none" stroke-width="1" fill="none" fill-rule="evenodd">
        <g id="brand:-Desktops---12-col" transform="translate(-978.000000, -1028.000000)" fill="#FFFFFF" fill-rule="nonzero">
            <g id="Group-4" transform="translate(978.000000, 1028.000000)">
                <g id="Group-3" transform="translate(2.000000, 0.000000)">
                    <g id="business">
                        <path d="M12.2199063,8.60520448 C12.0818404,8.17936494 11.7216756,7.87488509 11.2798813,7.81046471 L8.44903284,7.39784173 L7.18306953,4.82493301 C6.98541815,4.42336541 6.58530877,4.17391304 6.13879068,4.17391304 C5.69235547,4.17391304 5.29224609,4.42336541 5.09459471,4.82493301 L3.82879714,7.39784173 L0.998031582,7.81046471 C0.556154365,7.87480197 0.195989627,8.17928182 0.057923715,8.60520448 C-0.0801421971,9.03104403 0.0327304153,9.48988343 0.35253615,9.80275871 L2.40098346,11.8054431 L1.91750415,14.6332903 C1.84200712,15.074757 2.01952044,15.5124 2.38059677,15.7757339 C2.5847951,15.9245242 2.82355134,16 3.0640479,16 C3.24910263,16 3.43506896,15.9551967 3.60702981,15.8645925 L6.13895643,14.5294696 L8.67088304,15.8645925 C9.06610293,16.0729821 9.53590825,16.0389016 9.89706746,15.7757339 C10.2583095,15.5125663 10.4358229,15.074757 10.3603258,14.6332903 L9.87676365,11.8054431 L11.925211,9.80259246 C12.2450167,9.48996656 12.3578893,9.03112715 12.2199063,8.60520448 Z M8.9772634,10.9407137 C8.70270616,11.2091181 8.57748552,11.5955573 8.64229196,11.9745154 L9.10538459,14.6826654 L6.68061237,13.4041493 C6.34124868,13.2251022 5.93608407,13.2251853 5.59680325,13.4040662 L3.17203102,14.6826654 L3.63504078,11.9745154 C3.69984723,11.5957236 3.57470946,11.2092844 3.30023509,10.9407137 L1.33847262,9.02281484 L4.04965288,8.62764771 C4.42887834,8.57245399 4.7568056,8.33364138 4.92644601,7.98868059 L6.13879068,5.52457998 L7.35105248,7.98851435 C7.52061002,8.33347513 7.84845441,8.57245399 8.22784561,8.62764771 L10.9387773,9.02281484 L8.9772634,10.9407137 Z" id="Shape"></path>
                        <path d="M25.2199048,4.43117717 C25.0818398,4.00534062 24.7216776,3.70086292 24.2798863,3.63644298 L21.4490574,3.22382291 L20.1831028,0.651015393 C19.9855357,0.249450612 19.5854291,0 19.1389141,0 C18.6923991,0 18.2923753,0.249450612 18.0947253,0.651015393 L16.8287707,3.22390603 L13.9980247,3.6365261 C13.5561505,3.70077979 13.1959883,4.00534062 13.0579233,4.43126029 C12.9198584,4.85709684 13.0327302,5.31593302 13.3525337,5.6288061 L15.4010498,7.63155953 L14.9174909,10.4593037 C14.8419944,10.9007673 15.0195065,11.3384073 15.3805803,11.6017393 C15.7418199,11.8649883 16.2115391,11.8989854 16.606922,11.6906804 L19.1388312,10.3555669 L21.6707403,11.6906804 C21.8426171,11.7813671 22.0285822,11.826087 22.2137185,11.826087 C22.4541305,11.826087 22.692968,11.7505286 22.8971649,11.6018225 C23.2583216,11.3385735 23.4358337,10.9008504 23.3602543,10.45947 L22.8766955,7.63164266 L24.9252944,5.6288061 C25.2450151,5.31593302 25.3578869,4.85709684 25.2199048,4.43117717 Z M21.9773672,6.76675308 C21.7029776,7.03498938 21.5777578,7.42134274 21.6423981,7.80054757 L22.1054875,10.5086785 L19.6806491,9.23008827 C19.3414535,9.05120865 18.9362088,9.05120865 18.5969304,9.23008827 L16.1721749,10.5086785 L16.6352643,7.80054757 C16.7000703,7.42159211 16.5748505,7.03515562 16.3003781,6.76675308 L14.338712,4.84886772 L17.0497078,4.45370337 C17.4290135,4.39851003 17.7568556,4.1596991 17.9265778,3.81474074 L19.1389141,1.35074057 L20.3512504,3.81482386 C20.5209725,4.1596991 20.8488146,4.39851003 21.2280374,4.45370337 L23.9390333,4.84886772 L21.9773672,6.76675308 Z" id="Shape"></path>
                        <path d="M38.9420886,8.60517334 C38.8040225,8.17933679 38.4438574,7.87485908 38.0020626,7.81043915 L35.1712113,7.39781907 L33.9053296,4.82492844 C33.7076781,4.42336366 33.3076512,4.17391304 32.8611326,4.17391304 C32.4146141,4.17391304 32.0145872,4.42336366 31.8169356,4.82492844 L30.550971,7.39781907 L27.7202026,7.81043915 C27.2783249,7.87477596 26.9181598,8.17925366 26.7800938,8.60517334 C26.6421106,9.03109301 26.7549833,9.48992919 27.0747894,9.80263602 L29.1232388,11.8054726 L28.6396761,14.6332168 C28.564179,15.0746804 28.7416096,15.5123203 29.1027692,15.7756524 C29.4640116,16.0389013 29.9336517,16.0729816 30.3291206,15.8645935 L32.8610497,14.5294799 L35.3929789,15.8645935 C35.5648571,15.9552801 35.7508236,16 35.9359614,16 C36.1764582,16 36.4152975,15.9244417 36.6194132,15.7757355 C36.9805727,15.5124866 37.1580862,15.0747635 37.0825063,14.633383 L36.5989436,11.8055557 L38.6475587,9.80280227 C38.967199,9.48984607 39.0801546,9.03100989 38.9420886,8.60517334 Z M35.6994424,10.9407492 C35.4251335,11.2090687 35.2999128,11.5953389 35.3646364,11.9743775 L35.8277295,14.6825084 L33.402872,13.4039182 C33.2333143,13.3144784 33.047182,13.2697585 32.8610497,13.2697585 C32.6749175,13.2697585 32.4888681,13.3144784 32.3191446,13.4039182 L29.89437,14.6825084 L30.3574631,11.9743775 C30.4222696,11.5953389 30.2971317,11.2089855 30.0225742,10.940583 L28.0608926,9.02269764 L30.7717441,8.62753329 C31.1509699,8.57233995 31.4788975,8.33352902 31.648621,7.98857066 L32.8611326,5.52465361 L34.0734785,7.9887369 C34.243202,8.33361214 34.5710467,8.57233995 34.9502725,8.62761641 L37.6612898,9.02278076 L35.6994424,10.9407492 Z" id="Shape"></path>
                    </g>
                </g>
                <g id="clap" transform="translate(0.000000, 21.000000)">
                    <path d="M39.4874912,4.29312613 C39.8504414,4.04797819 39.9364491,3.56806234 39.6796334,3.22142085 C39.4228177,2.87477936 38.9205913,2.79250807 38.557507,3.0379123 L36.5469915,4.39654191 C36.1840414,4.64168985 36.0980336,5.1216057 36.3548493,5.46824719 C36.5117028,5.67994839 36.7603337,5.79310345 37.0125874,5.79310345 C37.173332,5.79310345 37.3356868,5.74722631 37.4769757,5.65162759 L39.4874912,4.29312613 Z" id="Shape"></path>
                    <path d="M34.6448863,4.28736431 C34.7539196,4.32636788 34.8659336,4.34482759 34.9759082,4.34482759 C35.3568187,4.34482759 35.715295,4.12390659 35.8571167,3.76557988 L36.870577,1.20771968 C37.0535019,0.746078167 36.8073534,0.230992828 36.3207042,0.0574120457 C35.8342118,-0.116317605 35.2912418,0.117554958 35.108317,0.579196472 L34.0948566,3.13705667 C33.9120886,3.59869819 34.1582371,4.11378353 34.6448863,4.28736431 Z" id="Shape"></path>
                    <path d="M41.1413483,7.96551724 C41.1354791,7.96551724 41.12961,7.96551724 41.1235977,7.96551724 L38.4966461,7.98410345 C38.022389,7.99218966 37.6457605,8.2985 37.6553516,8.69834483 C37.6647995,9.09312069 38.0474403,9.4137931 38.5138241,9.4137931 C38.5196933,9.4137931 38.5255624,9.4137931 38.5315747,9.4137931 L41.1585264,9.37601724 C41.6327834,9.36781034 42.0094119,9.0462931 41.9998208,8.64644828 C41.9903729,8.25167241 41.6077321,7.96551724 41.1413483,7.96551724 Z" id="Shape"></path>
                    <path d="M35.5818411,20.7183922 C35.1516964,20.372006 34.6424656,20.1362413 34.1041199,20.0254774 C34.1396736,19.9599873 34.1728478,19.8933581 34.2042023,19.8257324 L34.5412633,19.4829054 C35.839396,18.1624238 35.9757322,16.0839644 34.8581678,14.6478783 C34.3306002,13.9700548 33.5982484,13.5195962 32.7848508,13.3514573 C32.8429407,13.2426866 32.8944516,13.1314956 32.9412034,13.0185962 C33.8252887,11.7160532 33.8108712,9.96547189 32.8317426,8.70720596 C32.304035,8.02895534 31.5714033,7.57707301 30.7575857,7.4092188 C31.4294681,6.1526613 31.3436631,4.58659146 30.4461403,3.43353695 C29.7675391,2.56152078 28.751177,2.06123265 27.6574085,2.06123265 C26.7815818,2.06123265 25.9553065,2.37957194 25.30694,2.96243466 C25.2088172,2.39594449 24.9761779,1.84881663 24.6053828,1.37230429 C23.9266417,0.50028813 22.9102796,0.000142369986 21.8165111,0 C20.8660775,0 19.9738737,0.375144912 19.3043709,1.05610055 L10.7882619,9.71789048 L10.7557876,8.5618462 C10.7408102,6.5928693 9.16118673,4.99562043 7.22182626,4.99562043 C5.31759965,4.99562043 3.76037228,6.53535182 3.69038453,8.45492634 L1.99024218,21.0270503 L0.592866829,22.6791116 C-0.244606551,23.6695796 -0.188476378,25.1678813 0.720944406,26.0905812 L2.79776081,28.1993654 C2.1575129,29.1790133 2.26963327,30.5151556 3.10654675,31.3642502 L12.8582195,41.2670793 C13.3241979,41.73989 13.9427496,42 14.6003545,42 C15.1402399,42 15.6736866,41.8156309 16.1021515,41.4810614 L18.1379551,39.8910734 C20.0963523,39.4205406 22.2554743,38.3516267 24.5591909,36.7119516 C26.5707787,35.2799943 28.7531367,33.3719518 31.0452354,31.0405009 L35.8927267,26.1100859 C36.6075816,25.3830024 36.9838357,24.3748805 36.925046,23.3442642 C36.8662563,22.3153563 36.376762,21.3583453 35.5818411,20.7183922 Z M26.3328204,4.32520017 C26.6971766,3.95475346 27.1771526,3.76953011 27.6572685,3.76953011 C28.2052726,3.76953011 28.7534166,4.01084724 29.1291108,4.49362386 C29.7248466,5.25914727 29.6204248,6.37006027 28.9416837,7.06026996 L28.077055,7.93954699 C27.9437984,8.02995193 27.8140411,8.12662115 27.6925424,8.23610367 C27.5944195,7.66947113 27.3616403,7.12234327 26.9908452,6.6459733 C26.534945,6.06026318 25.9264716,5.64326149 25.2446509,5.43198443 L26.3328204,4.32520017 Z M20.492063,2.26410988 C20.8562792,1.89366318 21.3363952,1.70843983 21.8165111,1.70843983 C22.3646551,1.7085822 22.9126592,1.94989932 23.2883534,2.43267595 C23.8840891,3.19819936 23.7796674,4.30896999 23.1009262,4.99917968 L13.1740042,14.9915595 L13.1413899,13.8356576 C13.1328514,12.7216124 12.6234806,11.7268734 11.8317792,11.072968 L20.492063,2.26410988 Z M1.90709674,24.8808634 C1.61566776,24.5850186 1.59789087,24.1106418 1.86636387,23.7931567 L3.58540291,21.7605405 C3.58624276,21.7595439 3.58694264,21.7581202 3.58708262,21.7568388 L5.3675709,8.59003546 C5.3675709,7.55272774 6.20196482,6.70406026 7.22182626,6.70406026 C8.24168771,6.70406026 9.07622161,7.55272774 9.07622161,8.59003546 L9.12451315,10.3034582 C7.44648693,10.5377992 6.13995567,11.9738853 6.0758469,13.728453 L4.37584452,26.3007193 L3.8813111,26.8855752 L1.90709674,24.8808634 Z M34.7048947,24.9019342 L29.8575433,29.8323492 C25.7174881,34.0432262 21.3898658,37.4232321 17.5882714,38.26592 C17.4727916,38.291689 17.3641706,38.3410914 17.270387,38.4144119 L15.0790707,40.1259839 C14.9371355,40.2368901 14.768465,40.2914178 14.6004944,40.2914178 C14.3985098,40.2914178 14.197365,40.2124025 14.0450717,40.0577887 L4.29283906,30.1545325 C4.0012701,29.85883 3.98349322,29.3844532 4.25210619,29.0668258 L5.97100525,27.0343518 C5.97198508,27.0332129 5.97254498,27.0319316 5.97282493,27.0306502 L7.75317324,13.8638468 C7.75317324,12.8265391 8.58770713,11.9777293 9.60756858,11.9777293 C10.62743,11.9777293 11.4618239,12.8265391 11.4618239,13.8638468 L11.5494486,16.9709294 C11.5640061,17.487163 11.981553,17.8232985 12.4160369,17.8232985 C12.6279598,17.8232985 12.8440819,17.7431442 13.0191913,17.5651817 L22.8778053,7.53792126 C23.2421615,7.16733219 23.7219975,6.98225121 24.2022534,6.98225121 C24.7502575,6.98225121 25.2984015,7.22356833 25.6740957,7.70634496 C26.2698314,8.47186837 26.1652697,9.58278137 25.4865286,10.2729911 L18.6951976,17.180498 C18.3425993,17.5392704 18.3425993,18.120567 18.6951976,18.4790547 C18.8736663,18.6605764 19.1075654,18.7514084 19.3414644,18.7514084 C19.5753635,18.7514084 19.8094025,18.6605764 19.9877313,18.4790547 L28.7185627,9.59901155 C29.082779,9.22842247 29.5627549,9.04334149 30.0430108,9.04334149 C30.5910149,9.04348386 31.1391589,9.28480099 31.5148532,9.76757761 C32.1105889,10.5329587 32.0060272,11.6438717 31.327286,12.3340813 L22.6374674,21.1725524 C22.2801099,21.5361654 22.2801099,22.1252924 22.6374674,22.4889053 C22.8135565,22.6680068 23.0442362,22.7575575 23.2751957,22.7575575 C23.5058753,22.7575575 23.7366949,22.6680068 23.9127841,22.4889053 L30.7451279,15.5398263 C31.1094841,15.1692372 31.5894601,14.9841563 32.069576,14.9841563 C32.6175801,14.9841563 33.1657241,15.2254734 33.5414184,15.7083924 C34.1371541,16.4737734 34.0325924,17.5846864 33.3538512,18.2748961 L26.5861761,25.1584849 C26.2205601,25.5302129 26.2205601,26.1332922 26.5861761,26.5050202 L26.5970941,26.5162675 C26.7660446,26.688108 26.9874858,26.7739571 27.2087871,26.7739571 C27.4302283,26.7739571 27.6516695,26.688108 27.82048,26.5162675 L32.0161054,22.2488695 C32.3941792,21.8643282 32.9003306,21.6610238 33.4048023,21.6610238 C33.806112,21.6610238 34.206302,21.7897263 34.5395836,22.0580937 C35.4298278,22.7747842 35.4849781,24.1086486 34.7048947,24.9019342 Z" id="Shape"></path>
                </g>
            </g>
        </g>
    </g>
</svg>