<?xml version="1.0" encoding="UTF-8"?>
<svg width="36px" height="48px" viewBox="0 0 36 48" version="1.1" xmlns="http://www.w3.org/2000/svg" xmlns:xlink="http://www.w3.org/1999/xlink">
    <!-- Generator: Sketch 49 (51002) - http://www.bohemiancoding.com/sketch -->
    <title>Group</title>
    <desc>Created with Sketch.</desc>
    <defs></defs>
    <g id="brand&amp;food" stroke="none" stroke-width="1" fill="none" fill-rule="evenodd">
        <g id="brand:-Desktops---12-col" transform="translate(-418.000000, -1392.000000)" fill="#FFFFFF" fill-rule="nonzero">
            <g id="Group" transform="translate(418.000000, 1392.000000)">
                <path d="M18,0 C8.05888636,0 0,8.01335593 0,17.8983051 L0,47.1864407 C0,47.6357288 0.366340909,48 0.818181818,48 L14.7272727,48 C15.1791136,48 15.5454545,47.6357288 15.5454545,47.1864407 L15.5454545,43.1186441 L25.3636364,43.1186441 C28.5251932,43.1150847 31.0873295,40.5674237 31.0909091,37.4237288 L31.0909091,28.4745763 L35.1818182,28.4745763 C35.6336591,28.4745763 36,28.1103051 36,27.6610169 L36,17.8983051 C36,8.01335593 27.9411136,0 18,0 Z M34.3636364,26.8474576 L30.2727273,26.8474576 C29.8208864,26.8474576 29.4545455,27.2117288 29.4545455,27.6610169 L29.4545455,37.4237288 C29.4518864,39.6691525 27.6218182,41.4888814 25.3636364,41.4915254 L14.7272727,41.4915254 C14.2754318,41.4915254 13.9090909,41.8557966 13.9090909,42.3050847 L13.9090909,46.3728814 L1.63636364,46.3728814 L1.63636364,17.8983051 C1.63636364,8.9119322 8.96256818,1.62711864 18,1.62711864 C27.0374318,1.62711864 34.3636364,8.9119322 34.3636364,17.8983051 L34.3636364,26.8474576 Z" id="Shape"></path>
                <path d="M22.2727042,28.2374902 L22.2727042,26.1699916 C24.0051105,24.8713988 25.0069523,22.9264001 24.9999637,20.8749953 C24.9999637,17.0780448 21.6421106,14 17.5,14 C13.3578894,14 10.0000363,17.0780448 10.0000363,20.8749953 C9.99304772,22.9264001 10.9948895,24.8713988 12.7272958,26.1699916 L12.7272958,28.2374902 C11.8904533,28.9206929 11.8161355,30.0963952 12.5614444,30.863504 C12.8265851,31.1364726 13.1736289,31.3317068 13.55911,31.424988 C13.1335723,32.3805342 13.6336835,33.4713147 14.6760932,33.8613926 C14.9231659,33.9538925 15.1877101,34.0009238 15.4545554,33.9999863 L19.5454446,33.9999863 C20.6713767,34.0035019 21.5871393,33.1696743 21.5909745,32.1375657 C21.591912,31.8941283 21.5408611,31.6529566 21.44089,31.427488 C22.5248052,31.1666288 23.172785,30.1496764 22.8882125,29.1561615 C22.7864517,28.8009273 22.5722766,28.4813182 22.2727042,28.2374902 Z M19.09375,32.6206897 L15.15625,32.6206897 C14.7938359,32.6206897 14.5,32.3118966 14.5,31.9310345 C14.5,31.5501724 14.7938359,31.2413793 15.15625,31.2413793 L19.09375,31.2413793 C19.4561641,31.2413793 19.75,31.5501724 19.75,31.9310345 C19.75,32.3118966 19.4561641,32.6206897 19.09375,32.6206897 Z M21.3125,30.5517241 L14.4375,30.5517241 C14.0578281,30.5517241 13.75,30.242931 13.75,29.862069 C13.75,29.4812069 14.0578281,29.1724138 14.4375,29.1724138 L21.3125,29.1724138 C21.6921719,29.1724138 22,29.4812069 22,29.862069 C22,30.242931 21.6921719,30.5517241 21.3125,30.5517241 Z M21.0997759,25.4285195 C20.931953,25.5456787 20.8331258,25.7295201 20.8331258,25.9247596 L20.8331258,27.7931034 L14.1668742,27.7931034 L14.1668742,25.923519 C14.1664576,25.7287447 14.0677137,25.5453685 13.9002241,25.4285195 C11.2493892,23.578552 10.7121726,20.0793616 12.7002989,17.6127383 C14.6884251,15.146115 18.4489409,14.6462306 21.0997759,16.4961981 C23.7506108,18.3461656 24.2878274,21.845356 22.2997011,24.3119793 C21.9586391,24.7351791 21.5545809,25.1110809 21.0997759,25.4285195 Z" id="Shape"></path>
                <path d="M17,7 C16.44775,7 16,7.3358125 16,7.75 L16,9.25 C16,9.6641875 16.44775,10 17,10 C17.55225,10 18,9.6641875 18,9.25 L18,7.75 C18,7.3358125 17.55225,7 17,7 Z" id="Shape"></path>
                <path d="M12.8196683,10.683233 L11.7065814,9.34173554 C11.4002467,8.97133136 10.8102163,8.88924963 10.3887997,9.15850259 C9.96738309,9.42775554 9.87399698,9.94636286 10.1803317,10.316767 L11.2934186,11.6582645 C11.5997533,12.0286686 12.1897837,12.1107504 12.6112003,11.8414974 C13.0326169,11.5722445 13.126003,11.0536371 12.8196683,10.683233 Z" id="Shape"></path>
                <path d="M6.4626703,15.7517315 L6.4626703,15.7551886 L4.9849407,15.0418733 C4.57088475,14.8724753 4.14253761,15.232302 4.028208,15.8457935 C3.92107261,16.4205367 4.12756587,17.0216402 4.5042897,17.2313711 L5.9820193,17.943534 C6.05969732,17.9806978 6.14077801,17.9997119 6.2223448,18 C6.65185857,17.999856 7,17.4838835 7,16.8473447 C6.99990278,16.3483697 6.78300707,15.9060047 6.4626703,15.7517315 Z" id="Shape"></path>
                <path d="M24.5647526,9.13494468 C24.1566183,8.9022062 23.6149823,8.97712743 23.3075704,9.30871155 L22.1823405,10.6669473 C21.8726639,11.0419731 21.9669496,11.5669464 22.3929635,11.8395589 C22.5556689,11.9436511 22.7516305,11.9998945 22.9528369,11.9999994 C23.2583416,12.0003142 23.545609,11.871668 23.7252405,11.6541446 L24.846656,10.2959089 C25.1329698,9.90682216 25.0067391,9.38699059 24.5647526,9.13494468 Z" id="Shape"></path>
                <path d="M29.950098,15.746386 C29.8085597,15.1888457 29.4029982,14.8830978 29.0150317,15.041799 L27.5374345,15.7542995 C27.1289566,15.9508415 26.90547,16.600322 27.0383565,17.2049115 C27.1424688,17.6790007 27.4410018,18 27.7777384,18 L27.7777384,17.9965468 C27.8592979,17.9962591 27.9403713,17.9772667 28.0180424,17.9401453 L29.4956396,17.2287958 C29.8977016,17.0052042 30.1011629,16.3414794 29.950098,15.746386 Z" id="Shape"></path>
            </g>
        </g>
    </g>
</svg>