<?xml version="1.0" encoding="UTF-8"?>
<svg width="18px" height="20px" viewBox="0 0 18 20" version="1.1" xmlns="http://www.w3.org/2000/svg" xmlns:xlink="http://www.w3.org/1999/xlink">
    <!-- Generator: Sketch 49 (51002) - http://www.bohemiancoding.com/sketch -->
    <title>avatar</title>
    <desc>Created with Sketch.</desc>
    <defs></defs>
    <g id="Symbols" stroke="none" stroke-width="1" fill="none" fill-rule="evenodd">
        <g id="header" transform="translate(-1244.000000, -191.000000)" fill="#E1A957" fill-rule="nonzero">
            <g id="avatar" transform="translate(1244.000000, 191.000000)">
                <g id="Group">
                    <path d="M8.50360907,10.952381 C8.52416044,10.952381 8.5447118,10.952381 8.56937344,10.952381 C8.57759398,10.952381 8.58581453,10.952381 8.59403507,10.952381 C8.60636589,10.952381 8.62280698,10.952381 8.6351378,10.952381 C9.83944766,10.9313349 10.8135823,10.4977856 11.53288,9.66856996 C13.1153349,7.84177007 12.8522774,4.7101131 12.8235055,4.41125874 C12.7207487,2.16774642 11.68496,1.09439625 10.8300233,0.593499506 C10.1929311,0.21887925 9.44897176,0.0168368654 8.61869671,0 L8.5899248,0 C8.58581453,0 8.57759398,0 8.57348371,0 L8.54882207,0 C8.09258182,0 7.1965424,0.0757658944 6.33749543,0.57666264 C5.4743382,1.07755939 4.42210842,2.15090956 4.31935161,4.41125874 C4.2905797,4.7101131 4.02752225,7.84177007 5.60997719,9.66856996 C6.32516462,10.4977856 7.29929921,10.9313349 8.50360907,10.952381 Z M5.41679438,4.51648915 C5.41679438,4.5038615 5.42090465,4.49123385 5.42090465,4.48281542 C5.55654365,1.46480729 7.64867238,1.14069763 8.5447118,1.14069763 L8.56115289,1.14069763 C8.56937344,1.14069763 8.58170425,1.14069763 8.59403507,1.14069763 C9.70380866,1.16595293 11.5904238,1.62896673 11.7178422,4.48281542 C11.7178422,4.49544307 11.7178422,4.50807071 11.7219525,4.51648915 C11.7260628,4.54595366 12.0137818,7.40822078 10.7067152,8.91512024 C10.1888208,9.51282896 9.49829503,9.8074741 8.5899248,9.81589254 C8.58170425,9.81589254 8.57759398,9.81589254 8.56937344,9.81589254 C8.56115289,9.81589254 8.55704262,9.81589254 8.54882207,9.81589254 C7.64456211,9.8074741 6.94992605,9.51282896 6.43614198,8.91512024 C5.13318557,7.41663922 5.41268411,4.54174445 5.41679438,4.51648915 Z" id="Shape"></path>
                    <path d="M17.1416883,15.7715654 C17.1416883,15.7673071 17.1416883,15.7630489 17.1416883,15.7587907 C17.1416883,15.7247247 17.1375148,15.6906588 17.1375148,15.6523346 C17.1124739,14.8092026 17.0582184,12.8376364 15.2469207,12.2074166 C15.2344002,12.2031583 15.2177062,12.1989001 15.2051857,12.1946418 C13.3229385,11.704944 11.7578771,10.597801 11.7411831,10.5850262 C11.4865998,10.4019218 11.1360261,10.4657955 10.9565657,10.7255482 C10.7771053,10.985301 10.8397078,11.3429934 11.0942911,11.5260978 C11.1652405,11.5771967 12.8262924,12.7567298 14.9046939,13.3017848 C15.8771187,13.655219 15.9856296,14.7155213 16.0148441,15.6864005 C16.0148441,15.7247247 16.0148441,15.7587907 16.0190176,15.7928566 C16.0231911,16.1760984 15.9981501,16.7679941 15.9313742,17.1086535 C15.2552677,17.5004118 12.605097,18.8545328 8.57349885,18.8545328 C4.55859468,18.8545328 1.89173005,17.4961535 1.21145003,17.1043952 C1.14467408,16.7637358 1.1154596,16.1718402 1.12380659,15.7885984 C1.12380659,15.7545324 1.12798009,15.7204665 1.12798009,15.6821423 C1.15719457,14.711263 1.26570549,13.6509607 2.23813031,13.2975266 C4.31653185,12.7524716 5.97758368,11.5686802 6.04853313,11.5218396 C6.30311645,11.3387351 6.36571891,10.9810428 6.18625853,10.72129 C6.00679816,10.4615372 5.65622441,10.3976636 5.40164108,10.580768 C5.3849471,10.5935427 3.82823269,11.7006857 1.93763852,12.1903836 C1.92094453,12.1946418 1.90842404,12.1989001 1.89590355,12.2031583 C0.0846058233,12.8376364 0.0303503615,14.8092026 0.00530937909,15.6480764 C0.00530937909,15.6864005 0.00530937909,15.7204665 0.00113588203,15.7545324 C0.00113588203,15.7587907 0.00113588203,15.7630489 0.00113588203,15.7673071 C-0.00303761504,15.9887357 -0.0072111121,17.1256864 0.213984232,17.6962909 C0.255719203,17.8070052 0.33084215,17.9006865 0.43100608,17.9645602 C0.556210992,18.049725 3.55695538,20 8.57767235,20 C13.5983893,20 16.5991337,18.0454668 16.7243386,17.9645602 C16.8203291,17.9006865 16.8996255,17.8070052 16.9413605,17.6962909 C17.1500353,17.1299447 17.1458618,15.992994 17.1416883,15.7715654 Z" id="Shape"></path>
                </g>
            </g>
        </g>
    </g>
</svg>