<?xml version="1.0" encoding="UTF-8"?>
<svg width="28px" height="28px" viewBox="0 0 28 28" version="1.1" xmlns="http://www.w3.org/2000/svg" xmlns:xlink="http://www.w3.org/1999/xlink">
    <!-- Generator: Sketch 49 (51002) - http://www.bohemiancoding.com/sketch -->
    <title>phone-call</title>
    <desc>Created with Sketch.</desc>
    <defs></defs>
    <g id="index" stroke="none" stroke-width="1" fill="none" fill-rule="evenodd">
        <g id="Extra-large:-Desktops---12-col" transform="translate(-765.000000, -2530.000000)" fill="#F2D57F" fill-rule="nonzero">
            <g id="phone-call" transform="translate(765.000000, 2530.000000)">
                <g id="Group-2">
                    <path d="M22.4483538,17.2293907 C21.8663107,16.6260454 21.1642586,16.3034648 20.4202034,16.3034648 C19.6821487,16.3034648 18.9740962,16.6200717 18.3680513,17.223417 L16.4719106,19.1051374 C16.3158991,19.0215054 16.1598875,18.9438471 16.0098764,18.8661888 C15.7938604,18.7586619 15.5898452,18.6571087 15.4158323,18.5495818 C13.6397006,17.4265233 12.0255809,15.962963 10.4774661,14.0692951 C9.72741048,13.125448 9.2233731,12.3309438 8.85734596,11.5244922 C9.34938245,11.0764636 9.80541627,10.6105137 10.2494492,10.1624851 C10.4174617,9.99522103 10.5854741,9.82198327 10.7534866,9.65471924 C12.01358,8.40023895 12.01358,6.77538829 10.7534866,5.520908 L9.11536509,3.89008363 C8.9293513,3.70489845 8.73733706,3.51373955 8.55732371,3.32258065 C8.19729701,2.95221027 7.81926898,2.56989247 7.42924005,2.21146953 C6.84719689,1.63799283 6.15114527,1.33333333 5.41909098,1.33333333 C4.6870367,1.33333333 3.97898419,1.63799283 3.37893969,2.21146953 C3.37293924,2.21744325 3.37293924,2.21744325 3.3669388,2.22341697 L1.3267875,4.27240143 C0.558730547,5.03703704 0.120698063,5.96893668 0.0246909435,7.05017921 C-0.119319736,8.79450418 0.396718532,10.4193548 0.792747901,11.4826762 C1.76481999,14.09319 3.21692767,16.5125448 5.38308831,19.1051374 C8.01128322,22.2293907 11.1735177,24.6965352 14.7857856,26.4348865 C16.1658879,27.0860215 18.0080246,27.8566308 20.0661772,27.9880526 C20.1921865,27.9940263 20.3241963,28 20.4442052,28 C21.830308,28 22.9943943,27.5041816 23.906462,26.5185185 C23.9124624,26.5065711 23.9244633,26.5005974 23.9304638,26.4886499 C24.2424869,26.1123059 24.6025136,25.7718041 24.9805416,25.4074074 C25.2385608,25.1624851 25.5025803,24.9056153 25.7605995,24.6367981 C26.3546435,24.0215054 26.6666667,23.3046595 26.6666667,22.5698925 C26.6666667,21.8291517 26.3486431,21.1182796 25.7425981,20.520908 L22.4483538,17.2293907 Z M24.5965131,23.5197133 C24.5905127,23.5197133 24.5905127,23.525687 24.5965131,23.5197133 C24.3624958,23.7706093 24.122478,23.9976105 23.8644589,24.2485066 C23.4744299,24.6188769 23.0784006,25.0071685 22.706373,25.4432497 C22.100328,26.088411 21.3862751,26.3930705 20.4502057,26.3930705 C20.360199,26.3930705 20.2641919,26.3930705 20.1741852,26.3870968 C18.392053,26.2735962 16.7359302,25.5806452 15.4938381,24.9892473 C12.0975862,23.3524492 9.11536509,21.0286738 6.63718131,18.083632 C4.59102958,15.6284349 3.22292812,13.3584229 2.31686093,10.921147 C1.75881954,9.43369176 1.55480441,8.27479092 1.64481109,7.18160096 C1.70481554,6.48267622 1.97483556,5.90322581 2.4728725,5.40740741 L4.51902424,3.37037037 C4.81304604,3.09557945 5.12506918,2.94623656 5.43109187,2.94623656 C5.80911991,2.94623656 6.1151426,3.17323775 6.30715684,3.36439665 C6.31315729,3.37037037 6.31915773,3.37634409 6.32515818,3.3823178 C6.69118532,3.72281959 7.03921113,4.07526882 7.40523827,4.4516129 C7.59125207,4.6427718 7.78326631,4.8339307 7.97528055,5.03106332 L9.61340203,6.66188769 C10.2494492,7.29510155 10.2494492,7.88052569 9.61340203,8.51373955 C9.43938912,8.6869773 9.27137666,8.86021505 9.09736376,9.02747909 C8.59332638,9.54121864 8.11329078,10.0191159 7.59125207,10.4850657 C7.57925118,10.4970131 7.56725029,10.5029869 7.56124984,10.5149343 C7.04521157,11.0286738 7.14121869,11.5304659 7.2492267,11.8709677 C7.25522715,11.8888889 7.26122759,11.90681 7.26722804,11.9247312 C7.69325963,12.9522103 8.29330413,13.9199522 9.20537177,15.0728793 L9.21137221,15.078853 C10.867495,17.1099164 12.6136245,18.692951 14.5397674,19.9056153 C14.7857856,20.0609319 15.0378043,20.1863799 15.2778221,20.3058542 C15.4938381,20.4133811 15.6978532,20.5149343 15.8718661,20.6224612 C15.8958679,20.6344086 15.9198697,20.6523297 15.9438715,20.6642772 C16.1478866,20.7658303 16.3399009,20.8136201 16.5379155,20.8136201 C17.0359525,20.8136201 17.3479756,20.5029869 17.4499832,20.4014337 L19.5021354,18.3584229 C19.7061505,18.1553166 20.0301745,17.9103943 20.4082025,17.9103943 C20.7802301,17.9103943 21.0862528,18.1433692 21.2722666,18.3464755 C21.2782671,18.3524492 21.2782671,18.3524492 21.2842675,18.3584229 L24.5905127,21.6499403 C25.2085585,22.2592593 25.2085585,22.8864994 24.5965131,23.5197133 Z" id="Shape"></path>
                    <path d="M15.2892316,6.16719052 C16.7570921,6.41372237 18.0904921,7.10849396 19.154971,8.17306333 C20.21945,9.2376327 20.9085601,10.5711459 21.1606735,12.039131 C21.2223013,12.4089288 21.541645,12.6666667 21.9058088,12.6666667 C21.950629,12.6666667 21.9898466,12.6610637 22.0346668,12.6554607 C22.4492534,12.5882247 22.7237769,12.1960149 22.6565466,11.7813932 C22.3540105,10.0052432 21.5136324,8.3859772 20.2306551,7.10289096 C18.9476778,5.81980472 17.3285492,4.97935522 15.5525501,4.6767934 C15.1379635,4.60955744 14.7513896,4.88410428 14.6785568,5.29312304 C14.605724,5.70214179 14.874645,6.09995456 15.2892316,6.16719052 Z" id="Shape"></path>
                    <path d="M27.9877865,12.4072665 C27.4596431,9.30850432 25.999831,6.48874948 23.7567051,4.24481826 C21.5135791,2.00088704 18.6948362,0.54055085 15.5971861,0.012217838 C15.1639898,-0.0649543997 14.7545304,0.231861899 14.6773858,0.665213696 C14.6061755,1.10450182 14.896951,1.51410831 15.3360815,1.59128055 C18.1014167,2.0602503 20.6234498,3.37217834 22.6292079,5.3727202 C24.634966,7.37919838 25.9404891,9.90213692 26.4092905,12.6684648 C26.4745667,13.0602623 26.8128158,13.3333333 27.1985385,13.3333333 C27.2460121,13.3333333 27.2875515,13.327397 27.335025,13.3214607 C27.7682213,13.2561611 28.0649311,12.8406183 27.9877865,12.4072665 Z" id="Shape"></path>
                </g>
            </g>
        </g>
    </g>
</svg>